%TF.GenerationSoftware,KiCad,Pcbnew,7.0.2-0*%
%TF.CreationDate,2023-08-15T10:21:39+08:00*%
%TF.ProjectId,H160_board,48313630-5f62-46f6-9172-642e6b696361,rev?*%
%TF.SameCoordinates,Original*%
%TF.FileFunction,Soldermask,Top*%
%TF.FilePolarity,Negative*%
%FSLAX46Y46*%
G04 Gerber Fmt 4.6, Leading zero omitted, Abs format (unit mm)*
G04 Created by KiCad (PCBNEW 7.0.2-0) date 2023-08-15 10:21:39*
%MOMM*%
%LPD*%
G01*
G04 APERTURE LIST*
G04 Aperture macros list*
%AMRoundRect*
0 Rectangle with rounded corners*
0 $1 Rounding radius*
0 $2 $3 $4 $5 $6 $7 $8 $9 X,Y pos of 4 corners*
0 Add a 4 corners polygon primitive as box body*
4,1,4,$2,$3,$4,$5,$6,$7,$8,$9,$2,$3,0*
0 Add four circle primitives for the rounded corners*
1,1,$1+$1,$2,$3*
1,1,$1+$1,$4,$5*
1,1,$1+$1,$6,$7*
1,1,$1+$1,$8,$9*
0 Add four rect primitives between the rounded corners*
20,1,$1+$1,$2,$3,$4,$5,0*
20,1,$1+$1,$4,$5,$6,$7,0*
20,1,$1+$1,$6,$7,$8,$9,0*
20,1,$1+$1,$8,$9,$2,$3,0*%
%AMRotRect*
0 Rectangle, with rotation*
0 The origin of the aperture is its center*
0 $1 length*
0 $2 width*
0 $3 Rotation angle, in degrees counterclockwise*
0 Add horizontal line*
21,1,$1,$2,0,0,$3*%
G04 Aperture macros list end*
%ADD10RoundRect,0.125000X0.300000X-0.125000X0.300000X0.125000X-0.300000X0.125000X-0.300000X-0.125000X0*%
%ADD11RoundRect,0.250000X1.625000X-1.955000X1.625000X1.955000X-1.625000X1.955000X-1.625000X-1.955000X0*%
%ADD12RoundRect,0.150000X0.487500X-0.150000X0.487500X0.150000X-0.487500X0.150000X-0.487500X-0.150000X0*%
%ADD13RoundRect,0.150000X0.450000X-0.150000X0.450000X0.150000X-0.450000X0.150000X-0.450000X-0.150000X0*%
%ADD14RoundRect,0.150000X0.337500X-0.150000X0.337500X0.150000X-0.337500X0.150000X-0.337500X-0.150000X0*%
%ADD15RoundRect,0.200000X0.200000X0.275000X-0.200000X0.275000X-0.200000X-0.275000X0.200000X-0.275000X0*%
%ADD16RoundRect,0.200000X-0.200000X-0.275000X0.200000X-0.275000X0.200000X0.275000X-0.200000X0.275000X0*%
%ADD17RoundRect,0.225000X0.225000X0.250000X-0.225000X0.250000X-0.225000X-0.250000X0.225000X-0.250000X0*%
%ADD18RoundRect,0.225000X-0.250000X0.225000X-0.250000X-0.225000X0.250000X-0.225000X0.250000X0.225000X0*%
%ADD19RoundRect,0.125000X0.125000X0.300000X-0.125000X0.300000X-0.125000X-0.300000X0.125000X-0.300000X0*%
%ADD20RoundRect,0.250000X1.955000X1.625000X-1.955000X1.625000X-1.955000X-1.625000X1.955000X-1.625000X0*%
%ADD21RoundRect,0.150000X0.150000X0.487500X-0.150000X0.487500X-0.150000X-0.487500X0.150000X-0.487500X0*%
%ADD22RoundRect,0.150000X0.150000X0.450000X-0.150000X0.450000X-0.150000X-0.450000X0.150000X-0.450000X0*%
%ADD23RoundRect,0.150000X0.150000X0.337500X-0.150000X0.337500X-0.150000X-0.337500X0.150000X-0.337500X0*%
%ADD24RoundRect,0.200000X0.275000X-0.200000X0.275000X0.200000X-0.275000X0.200000X-0.275000X-0.200000X0*%
%ADD25RoundRect,0.243750X0.243750X0.456250X-0.243750X0.456250X-0.243750X-0.456250X0.243750X-0.456250X0*%
%ADD26RoundRect,0.250000X0.325000X0.650000X-0.325000X0.650000X-0.325000X-0.650000X0.325000X-0.650000X0*%
%ADD27R,2.400000X2.400000*%
%ADD28C,2.400000*%
%ADD29RoundRect,0.200000X-0.275000X0.200000X-0.275000X-0.200000X0.275000X-0.200000X0.275000X0.200000X0*%
%ADD30RoundRect,0.250000X-1.425000X0.362500X-1.425000X-0.362500X1.425000X-0.362500X1.425000X0.362500X0*%
%ADD31R,1.650000X0.400000*%
%ADD32R,0.700000X1.825000*%
%ADD33R,1.500000X2.000000*%
%ADD34R,2.000000X1.350000*%
%ADD35O,1.700000X1.350000*%
%ADD36O,1.500000X1.100000*%
%ADD37R,2.500000X1.430000*%
%ADD38R,0.900000X1.500000*%
%ADD39R,1.500000X0.900000*%
%ADD40R,0.900000X0.900000*%
%ADD41RoundRect,0.062500X0.362500X0.062500X-0.362500X0.062500X-0.362500X-0.062500X0.362500X-0.062500X0*%
%ADD42RoundRect,0.062500X0.062500X0.362500X-0.062500X0.362500X-0.062500X-0.362500X0.062500X-0.362500X0*%
%ADD43RoundRect,0.250000X0.575000X1.075000X-0.575000X1.075000X-0.575000X-1.075000X0.575000X-1.075000X0*%
%ADD44C,15.000000*%
%ADD45RoundRect,0.250000X0.850000X0.350000X-0.850000X0.350000X-0.850000X-0.350000X0.850000X-0.350000X0*%
%ADD46RoundRect,0.249997X2.950003X2.650003X-2.950003X2.650003X-2.950003X-2.650003X2.950003X-2.650003X0*%
%ADD47RoundRect,0.250000X-0.750000X-0.500000X0.750000X-0.500000X0.750000X0.500000X-0.750000X0.500000X0*%
%ADD48RoundRect,0.250000X-0.750000X-1.650000X0.750000X-1.650000X0.750000X1.650000X-0.750000X1.650000X0*%
%ADD49R,2.900000X5.400000*%
%ADD50RoundRect,0.250000X-0.400000X-0.625000X0.400000X-0.625000X0.400000X0.625000X-0.400000X0.625000X0*%
%ADD51C,4.100000*%
%ADD52C,7.400000*%
%ADD53RoundRect,0.250000X-0.475000X0.250000X-0.475000X-0.250000X0.475000X-0.250000X0.475000X0.250000X0*%
%ADD54RoundRect,0.150000X0.150000X-0.825000X0.150000X0.825000X-0.150000X0.825000X-0.150000X-0.825000X0*%
%ADD55RoundRect,0.225000X0.250000X-0.225000X0.250000X0.225000X-0.250000X0.225000X-0.250000X-0.225000X0*%
%ADD56R,1.905000X2.000000*%
%ADD57O,1.905000X2.000000*%
%ADD58RoundRect,0.250000X-0.300000X0.300000X-0.300000X-0.300000X0.300000X-0.300000X0.300000X0.300000X0*%
%ADD59R,0.400000X1.200000*%
%ADD60R,0.800000X1.070000*%
%ADD61RotRect,0.282800X0.282800X315.000000*%
%ADD62R,0.600000X0.200000*%
%ADD63R,0.850000X0.300000*%
%ADD64R,0.300000X0.850000*%
%ADD65RoundRect,0.225000X-0.225000X-0.250000X0.225000X-0.250000X0.225000X0.250000X-0.225000X0.250000X0*%
%ADD66R,2.000000X2.000000*%
%ADD67C,2.000000*%
%ADD68R,1.700000X1.700000*%
%ADD69O,1.700000X1.700000*%
%ADD70RoundRect,0.150000X0.675000X0.150000X-0.675000X0.150000X-0.675000X-0.150000X0.675000X-0.150000X0*%
%ADD71R,2.650000X3.000000*%
%ADD72RoundRect,0.249999X0.450001X1.450001X-0.450001X1.450001X-0.450001X-1.450001X0.450001X-1.450001X0*%
%ADD73RoundRect,0.250000X-0.362500X-1.425000X0.362500X-1.425000X0.362500X1.425000X-0.362500X1.425000X0*%
%ADD74RoundRect,0.243750X0.456250X-0.243750X0.456250X0.243750X-0.456250X0.243750X-0.456250X-0.243750X0*%
%ADD75RoundRect,0.249999X-1.450001X0.450001X-1.450001X-0.450001X1.450001X-0.450001X1.450001X0.450001X0*%
%ADD76RoundRect,0.225000X-0.225000X-0.375000X0.225000X-0.375000X0.225000X0.375000X-0.225000X0.375000X0*%
%ADD77RoundRect,0.250000X1.500000X0.550000X-1.500000X0.550000X-1.500000X-0.550000X1.500000X-0.550000X0*%
%ADD78R,3.600000X2.600000*%
%ADD79R,1.200000X0.700000*%
%ADD80R,0.800000X1.000000*%
%ADD81R,1.200000X1.000000*%
%ADD82R,2.800000X1.000000*%
%ADD83R,1.900000X1.300000*%
%ADD84R,0.300000X0.580000*%
%ADD85R,0.630000X0.350000*%
%ADD86RoundRect,0.087500X0.087500X-0.225000X0.087500X0.225000X-0.087500X0.225000X-0.087500X-0.225000X0*%
%ADD87RoundRect,0.087500X0.225000X-0.087500X0.225000X0.087500X-0.225000X0.087500X-0.225000X-0.087500X0*%
G04 APERTURE END LIST*
D10*
%TO.C,Q1*%
X123675000Y-123455000D03*
X123675000Y-122185000D03*
X123675000Y-120915000D03*
X123675000Y-119645000D03*
D11*
X120125000Y-121550000D03*
D12*
X118082600Y-123455000D03*
D13*
X118057200Y-119645000D03*
D14*
X117930200Y-122185000D03*
X117930200Y-120915000D03*
%TD*%
D15*
%TO.C,R35*%
X93425000Y-152000000D03*
X91775000Y-152000000D03*
%TD*%
D16*
%TO.C,R15*%
X148275000Y-91600000D03*
X149925000Y-91600000D03*
%TD*%
D17*
%TO.C,C30*%
X48475000Y-116150000D03*
X46925000Y-116150000D03*
%TD*%
D18*
%TO.C,C34*%
X95400000Y-80925000D03*
X95400000Y-82475000D03*
%TD*%
D19*
%TO.C,Q2*%
X129880000Y-119350000D03*
X128610000Y-119350000D03*
X127340000Y-119350000D03*
X126070000Y-119350000D03*
D20*
X127975000Y-122900000D03*
D21*
X129880000Y-124942400D03*
D22*
X126070000Y-124967800D03*
D23*
X128610000Y-125094800D03*
X127340000Y-125094800D03*
%TD*%
D24*
%TO.C,R26*%
X49700000Y-81925000D03*
X49700000Y-80275000D03*
%TD*%
D17*
%TO.C,C27*%
X51095000Y-105825000D03*
X49545000Y-105825000D03*
%TD*%
D15*
%TO.C,R33*%
X127775000Y-139025000D03*
X126125000Y-139025000D03*
%TD*%
D16*
%TO.C,R1*%
X126150000Y-135225000D03*
X127800000Y-135225000D03*
%TD*%
D25*
%TO.C,D4*%
X153737500Y-91600000D03*
X151862500Y-91600000D03*
%TD*%
D15*
%TO.C,R19*%
X147600000Y-79075000D03*
X145950000Y-79075000D03*
%TD*%
D26*
%TO.C,C17*%
X144050000Y-89000000D03*
X141100000Y-89000000D03*
%TD*%
D27*
%TO.C,C4*%
X101601041Y-132000000D03*
D28*
X106601041Y-132000000D03*
%TD*%
D29*
%TO.C,R27*%
X52700000Y-105775000D03*
X52700000Y-107425000D03*
%TD*%
D30*
%TO.C,R20*%
X102600000Y-67737500D03*
X102600000Y-73662500D03*
%TD*%
D31*
%TO.C,J6*%
X151600000Y-81560000D03*
X151600000Y-80910000D03*
X151600000Y-80260000D03*
X151600000Y-79610000D03*
X151600000Y-78960000D03*
D32*
X152800000Y-83210000D03*
D33*
X151500000Y-83110000D03*
D34*
X153550000Y-82990000D03*
D35*
X154480000Y-82990000D03*
D36*
X151480000Y-82680000D03*
D37*
X154750000Y-81220000D03*
X154750000Y-79300000D03*
D36*
X151480000Y-77840000D03*
D35*
X154480000Y-77530000D03*
D34*
X153550000Y-77510000D03*
D33*
X151480000Y-77360000D03*
D32*
X152800000Y-77260000D03*
%TD*%
D38*
%TO.C,U6*%
X49840000Y-103825000D03*
X51110000Y-103825000D03*
X52380000Y-103825000D03*
X53650000Y-103825000D03*
X54920000Y-103825000D03*
X56190000Y-103825000D03*
X57460000Y-103825000D03*
X58730000Y-103825000D03*
X60000000Y-103825000D03*
X61270000Y-103825000D03*
X62540000Y-103825000D03*
X63810000Y-103825000D03*
X65080000Y-103825000D03*
X66350000Y-103825000D03*
D39*
X67600000Y-102060000D03*
X67600000Y-100790000D03*
X67600000Y-99520000D03*
X67600000Y-98250000D03*
X67600000Y-96980000D03*
X67600000Y-95710000D03*
X67600000Y-94440000D03*
X67600000Y-93170000D03*
X67600000Y-91900000D03*
X67600000Y-90630000D03*
X67600000Y-89360000D03*
X67600000Y-88090000D03*
D38*
X66350000Y-86325000D03*
X65080000Y-86325000D03*
X63810000Y-86325000D03*
X62540000Y-86325000D03*
X61270000Y-86325000D03*
X60000000Y-86325000D03*
X58730000Y-86325000D03*
X57460000Y-86325000D03*
X56190000Y-86325000D03*
X54920000Y-86325000D03*
X53650000Y-86325000D03*
X52380000Y-86325000D03*
X51110000Y-86325000D03*
X49840000Y-86325000D03*
D40*
X56160000Y-97975000D03*
X57560000Y-97975000D03*
X58960000Y-97975000D03*
X56160000Y-96575000D03*
X57560000Y-96575000D03*
X58960000Y-96575000D03*
X56160000Y-95175000D03*
X57560000Y-95175000D03*
X58960000Y-95175000D03*
%TD*%
D41*
%TO.C,U1*%
X134975000Y-111700000D03*
X134975000Y-111200000D03*
X134975000Y-110700000D03*
X134975000Y-110200000D03*
X134975000Y-109700000D03*
X134975000Y-109200000D03*
D42*
X134275000Y-108500000D03*
X133775000Y-108500000D03*
X133275000Y-108500000D03*
X132775000Y-108500000D03*
D41*
X132075000Y-109200000D03*
X132075000Y-109700000D03*
X132075000Y-110200000D03*
X132075000Y-110700000D03*
X132075000Y-111200000D03*
X132075000Y-111700000D03*
D42*
X132775000Y-112400000D03*
X133275000Y-112400000D03*
X133775000Y-112400000D03*
X134275000Y-112400000D03*
D43*
X133525000Y-110450000D03*
%TD*%
D44*
%TO.C,H2*%
X120250000Y-85500000D03*
%TD*%
D45*
%TO.C,U2*%
X145875000Y-96400000D03*
D46*
X139575000Y-94120000D03*
D45*
X145875000Y-91840000D03*
%TD*%
D47*
%TO.C,Q6*%
X52250000Y-78700000D03*
X52250000Y-81000000D03*
D48*
X58550000Y-81000000D03*
D47*
X52250000Y-83300000D03*
%TD*%
D17*
%TO.C,C9*%
X152250000Y-103700000D03*
X150700000Y-103700000D03*
%TD*%
D49*
%TO.C,L1*%
X135550000Y-125500000D03*
X145450000Y-125500000D03*
%TD*%
D50*
%TO.C,C2*%
X121075000Y-114300000D03*
X124175000Y-114300000D03*
%TD*%
D15*
%TO.C,R12*%
X130300000Y-108700000D03*
X128650000Y-108700000D03*
%TD*%
D51*
%TO.C,H1*%
X88131000Y-133092000D03*
D52*
X88131000Y-133092000D03*
%TD*%
D18*
%TO.C,C20*%
X149150000Y-80800000D03*
X149150000Y-82350000D03*
%TD*%
D16*
%TO.C,R10*%
X133750000Y-103900000D03*
X135400000Y-103900000D03*
%TD*%
D53*
%TO.C,C35*%
X92100000Y-145100000D03*
X92100000Y-147000000D03*
%TD*%
D16*
%TO.C,R3*%
X126150000Y-132275000D03*
X127800000Y-132275000D03*
%TD*%
D54*
%TO.C,U8*%
X65695000Y-127300000D03*
X66965000Y-127300000D03*
X68235000Y-127300000D03*
X69505000Y-127300000D03*
X69505000Y-122350000D03*
X68235000Y-122350000D03*
X66965000Y-122350000D03*
X65695000Y-122350000D03*
%TD*%
D55*
%TO.C,C6*%
X129975000Y-117275000D03*
X129975000Y-115725000D03*
%TD*%
D56*
%TO.C,Q4*%
X97500000Y-63800000D03*
D57*
X100040000Y-63800000D03*
X102580000Y-63800000D03*
%TD*%
D15*
%TO.C,R31*%
X50439939Y-121740018D03*
X48789939Y-121740018D03*
%TD*%
%TO.C,R7*%
X135400000Y-105800000D03*
X133750000Y-105800000D03*
%TD*%
D24*
%TO.C,R11*%
X132275000Y-125250000D03*
X132275000Y-123600000D03*
%TD*%
%TO.C,R9*%
X150000000Y-96025000D03*
X150000000Y-94375000D03*
%TD*%
D29*
%TO.C,R14*%
X141275000Y-104475000D03*
X141275000Y-106125000D03*
%TD*%
D51*
%TO.C,H4*%
X66907000Y-111879000D03*
D52*
X66907000Y-111879000D03*
%TD*%
D24*
%TO.C,R24*%
X70500000Y-78225000D03*
X70500000Y-76575000D03*
%TD*%
D55*
%TO.C,C21*%
X149150000Y-79050000D03*
X149150000Y-77500000D03*
%TD*%
D26*
%TO.C,C16*%
X145350000Y-99100000D03*
X142400000Y-99100000D03*
%TD*%
D55*
%TO.C,C13*%
X132275000Y-121600000D03*
X132275000Y-120050000D03*
%TD*%
D58*
%TO.C,D3*%
X148175000Y-99000000D03*
X148175000Y-101800000D03*
%TD*%
D59*
%TO.C,U3*%
X128957500Y-69700000D03*
X128322500Y-69700000D03*
X127687500Y-69700000D03*
X127052500Y-69700000D03*
X126417500Y-69700000D03*
X125782500Y-69700000D03*
X125147500Y-69700000D03*
X124512500Y-69700000D03*
X123877500Y-69700000D03*
X123242500Y-69700000D03*
X123242500Y-74900000D03*
X123877500Y-74900000D03*
X124512500Y-74900000D03*
X125147500Y-74900000D03*
X125782500Y-74900000D03*
X126417500Y-74900000D03*
X127052500Y-74900000D03*
X127687500Y-74900000D03*
X128322500Y-74900000D03*
X128957500Y-74900000D03*
%TD*%
D60*
%TO.C,U4*%
X94500000Y-75680000D03*
D61*
X94700000Y-76215000D03*
D62*
X94400000Y-76315000D03*
D60*
X93500000Y-75680000D03*
D61*
X93300000Y-76215000D03*
D62*
X93600000Y-76315000D03*
D63*
X92550000Y-77230000D03*
X92550000Y-77730000D03*
D64*
X93250000Y-78430000D03*
X93750000Y-78430000D03*
X94250000Y-78430000D03*
X94750000Y-78430000D03*
D63*
X95450000Y-77730000D03*
X95450000Y-77230000D03*
%TD*%
D50*
%TO.C,C1*%
X120975000Y-111400000D03*
X124075000Y-111400000D03*
%TD*%
D56*
%TO.C,Q5*%
X80000000Y-63800000D03*
D57*
X82540000Y-63800000D03*
X85080000Y-63800000D03*
%TD*%
D15*
%TO.C,R37*%
X93425000Y-148700000D03*
X91775000Y-148700000D03*
%TD*%
D18*
%TO.C,C25*%
X70500000Y-79800000D03*
X70500000Y-81350000D03*
%TD*%
D65*
%TO.C,C15*%
X137800000Y-106200000D03*
X139350000Y-106200000D03*
%TD*%
D25*
%TO.C,D2*%
X153737500Y-94300000D03*
X151862500Y-94300000D03*
%TD*%
D65*
%TO.C,C7*%
X137800000Y-111900000D03*
X139350000Y-111900000D03*
%TD*%
D15*
%TO.C,R39*%
X93425000Y-141700000D03*
X91775000Y-141700000D03*
%TD*%
D66*
%TO.C,BZ1*%
X58500000Y-70600000D03*
D67*
X50900000Y-70600000D03*
%TD*%
D68*
%TO.C,J2*%
X67600000Y-77775000D03*
D69*
X67600000Y-80315000D03*
%TD*%
D16*
%TO.C,R30*%
X57775000Y-105900000D03*
X59425000Y-105900000D03*
%TD*%
D70*
%TO.C,U5*%
X79525000Y-72155000D03*
X79525000Y-70885000D03*
X79525000Y-69615000D03*
X79525000Y-68345000D03*
X74275000Y-68345000D03*
X74275000Y-69615000D03*
X74275000Y-70885000D03*
X74275000Y-72155000D03*
D71*
X76900000Y-70250000D03*
%TD*%
D72*
%TO.C,C22*%
X117550000Y-69000000D03*
X113450000Y-69000000D03*
%TD*%
D68*
%TO.C,J4*%
X53160000Y-113480000D03*
D69*
X55700000Y-113480000D03*
X53160000Y-116020000D03*
X55700000Y-116020000D03*
X53160000Y-118560000D03*
X55700000Y-118560000D03*
X53160000Y-121100000D03*
X55700000Y-121100000D03*
X53160000Y-123640000D03*
X55700000Y-123640000D03*
X53160000Y-126180000D03*
X55700000Y-126180000D03*
X53160000Y-128720000D03*
X55700000Y-128720000D03*
X53160000Y-131260000D03*
X55700000Y-131260000D03*
%TD*%
D24*
%TO.C,R22*%
X93600000Y-65425000D03*
X93600000Y-63775000D03*
%TD*%
D65*
%TO.C,C12*%
X137800000Y-108100000D03*
X139350000Y-108100000D03*
%TD*%
D16*
%TO.C,R5*%
X129325000Y-132275000D03*
X130975000Y-132275000D03*
%TD*%
D17*
%TO.C,C31*%
X50375000Y-123700000D03*
X48825000Y-123700000D03*
%TD*%
D65*
%TO.C,C18*%
X126225000Y-78400000D03*
X127775000Y-78400000D03*
%TD*%
D18*
%TO.C,C23*%
X97700000Y-77225000D03*
X97700000Y-78775000D03*
%TD*%
D29*
%TO.C,R4*%
X131875000Y-115675000D03*
X131875000Y-117325000D03*
%TD*%
D55*
%TO.C,C29*%
X71400000Y-125600000D03*
X71400000Y-124050000D03*
%TD*%
D73*
%TO.C,R6*%
X148712500Y-118700000D03*
X154637500Y-118700000D03*
%TD*%
D74*
%TO.C,D5*%
X127600000Y-67537500D03*
X127600000Y-65662500D03*
%TD*%
D15*
%TO.C,R29*%
X55925000Y-105900000D03*
X54275000Y-105900000D03*
%TD*%
D16*
%TO.C,R32*%
X58475000Y-122800000D03*
X60125000Y-122800000D03*
%TD*%
D75*
%TO.C,C24*%
X69400000Y-68150000D03*
X69400000Y-72250000D03*
%TD*%
D27*
%TO.C,C5*%
X114850000Y-132000000D03*
D28*
X119850000Y-132000000D03*
%TD*%
D15*
%TO.C,R8*%
X152300000Y-101700000D03*
X150650000Y-101700000D03*
%TD*%
D16*
%TO.C,R25*%
X67600000Y-83125000D03*
X69250000Y-83125000D03*
%TD*%
D26*
%TO.C,C26*%
X51095000Y-108125000D03*
X48145000Y-108125000D03*
%TD*%
D15*
%TO.C,R13*%
X148900000Y-103700000D03*
X147250000Y-103700000D03*
%TD*%
D65*
%TO.C,C14*%
X137800000Y-104300000D03*
X139350000Y-104300000D03*
%TD*%
D18*
%TO.C,C36*%
X73250000Y-74800000D03*
X73250000Y-76350000D03*
%TD*%
D65*
%TO.C,C32*%
X58525000Y-124400000D03*
X60075000Y-124400000D03*
%TD*%
D72*
%TO.C,C10*%
X152825000Y-114300000D03*
X148725000Y-114300000D03*
%TD*%
D76*
%TO.C,D1*%
X133725000Y-117300000D03*
X137025000Y-117300000D03*
%TD*%
D29*
%TO.C,R17*%
X129800000Y-62475000D03*
X129800000Y-64125000D03*
%TD*%
D16*
%TO.C,R2*%
X129325000Y-135225000D03*
X130975000Y-135225000D03*
%TD*%
D15*
%TO.C,R36*%
X93425000Y-150350000D03*
X91775000Y-150350000D03*
%TD*%
D77*
%TO.C,C11*%
X153875000Y-108400000D03*
X148475000Y-108400000D03*
%TD*%
D50*
%TO.C,C3*%
X133825000Y-114800000D03*
X136925000Y-114800000D03*
%TD*%
D65*
%TO.C,C19*%
X125125000Y-76700000D03*
X126675000Y-76700000D03*
%TD*%
D16*
%TO.C,R28*%
X62575000Y-83300000D03*
X64225000Y-83300000D03*
%TD*%
D15*
%TO.C,R38*%
X93425000Y-143400000D03*
X91775000Y-143400000D03*
%TD*%
D74*
%TO.C,D6*%
X129900000Y-67537500D03*
X129900000Y-65662500D03*
%TD*%
D78*
%TO.C,BT1*%
X100675000Y-115725000D03*
X100675000Y-86425000D03*
%TD*%
D79*
%TO.C,J5*%
X89500000Y-149400000D03*
X89500000Y-148300000D03*
X89500000Y-147200000D03*
X89500000Y-146100000D03*
X89500000Y-145000000D03*
X89500000Y-143900000D03*
X89500000Y-142800000D03*
X89500000Y-141700000D03*
X89500000Y-140750000D03*
D80*
X79000000Y-139800000D03*
D81*
X85200000Y-139800000D03*
D82*
X74850000Y-139800000D03*
D81*
X89500000Y-150950000D03*
D83*
X74400000Y-153300000D03*
%TD*%
D15*
%TO.C,R18*%
X147600000Y-80775000D03*
X145950000Y-80775000D03*
%TD*%
D44*
%TO.C,H3*%
X79750000Y-85500000D03*
%TD*%
D84*
%TO.C,U9*%
X48600000Y-119300000D03*
X49100000Y-119300000D03*
X49600000Y-119300000D03*
X50100000Y-119300000D03*
D85*
X50225000Y-118645000D03*
D84*
X50100000Y-118020000D03*
X49600000Y-118020000D03*
X49100000Y-118020000D03*
X48600000Y-118020000D03*
D85*
X48500000Y-118645000D03*
%TD*%
D17*
%TO.C,FB1*%
X134575000Y-82000000D03*
X133025000Y-82000000D03*
%TD*%
D65*
%TO.C,C33*%
X127775000Y-137125000D03*
X129325000Y-137125000D03*
%TD*%
D30*
%TO.C,R21*%
X85100000Y-67737500D03*
X85100000Y-73662500D03*
%TD*%
D55*
%TO.C,C28*%
X79772500Y-134645000D03*
X79772500Y-133095000D03*
%TD*%
D56*
%TO.C,Q3*%
X115000000Y-63800000D03*
D57*
X117540000Y-63800000D03*
X120080000Y-63800000D03*
%TD*%
D29*
%TO.C,R16*%
X127600000Y-62475000D03*
X127600000Y-64125000D03*
%TD*%
D65*
%TO.C,C8*%
X137800000Y-110000000D03*
X139350000Y-110000000D03*
%TD*%
D86*
%TO.C,U7*%
X76337500Y-135062500D03*
X76837500Y-135062500D03*
X77337500Y-135062500D03*
X77837500Y-135062500D03*
D87*
X78000000Y-134400000D03*
X78000000Y-133900000D03*
X78000000Y-133400000D03*
D86*
X77837500Y-132737500D03*
X77337500Y-132737500D03*
X76837500Y-132737500D03*
X76337500Y-132737500D03*
D87*
X76175000Y-133400000D03*
X76175000Y-133900000D03*
X76175000Y-134400000D03*
%TD*%
D24*
%TO.C,R23*%
X76100000Y-65425000D03*
X76100000Y-63775000D03*
%TD*%
D29*
%TO.C,R34*%
X93500000Y-80875000D03*
X93500000Y-82525000D03*
%TD*%
M02*
