M48
; DRILL file {KiCad 7.0.2-0} date 2023 August 15, Tuesday 10:21:36
; FORMAT={-:-/ absolute / inch / decimal}
; #@! TF.CreationDate,2023-08-15T10:21:36+08:00
; #@! TF.GenerationSoftware,Kicad,Pcbnew,7.0.2-0
; #@! TF.FileFunction,Plated,1,4,PTH
FMAT,2
INCH
; #@! TA.AperFunction,Plated,PTH,ComponentDrill
T1C0.0079
; #@! TA.AperFunction,Plated,PTH,ViaDrill
T2C0.0157
; #@! TA.AperFunction,Plated,PTH,ComponentDrill
T3C0.0256
; #@! TA.AperFunction,Plated,PTH,ComponentDrill
T4C0.0276
; #@! TA.AperFunction,Plated,PTH,ComponentDrill
T5C0.0394
; #@! TA.AperFunction,Plated,PTH,ComponentDrill
T6C0.0433
; #@! TA.AperFunction,Plated,PTH,ComponentDrill
T7C0.0472
; #@! TA.AperFunction,Plated,PTH,ComponentDrill
T8C0.1457
; #@! TA.AperFunction,Plated,PTH,ComponentDrill
T9C0.2362
%
G90
G05
T1
X2.9852Y-2.7165
X2.9852Y-2.7657
X2.9852Y-2.815
X3.0276Y-2.7165
X3.0276Y-2.7657
X3.0276Y-2.815
X3.0699Y-2.7165
X3.0699Y-2.7657
X3.0699Y-2.815
T2
X1.8622Y-4.6654
X1.8642Y-4.628
X1.8839Y-4.5157
X1.8976Y-4.7402
X1.9567Y-3.2756
X1.9619Y-4.6115
X1.9941Y-3.4705
X2.0118Y-4.3268
X2.0157Y-4.6142
X2.0453Y-3.4823
X2.0591Y-4.0236
X2.1142Y-3.3386
X2.1142Y-3.4882
X2.1142Y-4.0354
X2.1772Y-4.2205
X2.2303Y-3.3248
X2.2323Y-3.2835
X2.3701Y-3.4843
X2.372Y-3.3169
X2.3819Y-3.2756
X2.3819Y-4.2244
X2.3898Y-4.1693
X2.3937Y-3.2244
X2.4016Y-3.8189
X2.4134Y-3.3169
X2.4449Y-3.7681
X2.4555Y-3.5681
X2.4843Y-3.4685
X2.4843Y-3.6181
X2.498Y-3.3268
X2.5Y-3.7205
X2.5157Y-3.6681
X2.5433Y-3.8701
X2.6122Y-3.4015
X2.6654Y-4.9449
X2.7136Y-2.9862
X2.7323Y-2.6831
X2.749Y-4.7441
X2.8425Y-5.3425
X2.8701Y-5.253
X2.8819Y-5.3819
X2.9213Y-5.2992
X2.9252Y-2.9016
X3.063Y-5.3701
X3.0984Y-3.9016
X3.1299Y-2.6378
X3.1339Y-2.8976
X3.1811Y-3.9843
X3.1969Y-5.3031
X3.2992Y-2.8898
X3.2992Y-2.9291
X3.3071Y-2.6654
X3.3504Y-2.6654
X3.3504Y-2.8898
X3.3504Y-2.9291
X3.3937Y-2.6654
X3.3996Y-5.7835
X3.4016Y-2.8898
X3.4016Y-2.9291
X3.4094Y-5.7047
X3.4134Y-5.5925
X3.4429Y-5.8406
X3.4528Y-2.8898
X3.4528Y-2.9291
X3.4665Y-5.6161
X3.4685Y-5.5413
X3.4705Y-5.8819
X3.5512Y-2.9843
X3.5512Y-3.0276
X3.5945Y-2.9843
X3.5945Y-3.0276
X3.6299Y-3.252
X3.6378Y-2.9843
X3.6772Y-2.8976
X3.6929Y-5.7126
X3.7205Y-2.8976
X3.7205Y-2.9409
X3.7638Y-2.8976
X3.7638Y-2.9409
X3.7638Y-2.9843
X3.8031Y-3.0394
X3.937Y-2.8976
X3.937Y-2.9409
X3.937Y-2.9843
X3.9646Y-4.4656
X3.9803Y-2.9409
X3.9803Y-2.9843
X3.9961Y-2.6654
X4.0236Y-2.9409
X4.0236Y-2.9843
X4.0394Y-2.6654
X4.0669Y-2.9409
X4.0669Y-2.9843
X4.0827Y-2.6654
X4.4646Y-2.5748
X4.7667Y-4.5
X4.8976Y-4.6575
X4.9124Y-5.4734
X4.9134Y-2.7953
X4.9213Y-4.3386
X4.9213Y-4.3937
X4.9213Y-4.4449
X4.9571Y-2.9893
X4.9685Y-4.3386
X4.9685Y-4.3937
X4.9685Y-4.4449
X4.9724Y-4.6575
X5.0157Y-4.3386
X5.0157Y-4.3937
X5.0157Y-4.4488
X5.0197Y-2.8307
X5.0236Y-2.6575
X5.0384Y-4.8386
X5.0512Y-4.5827
X5.0669Y-2.4596
X5.0709Y-4.3386
X5.1024Y-2.8031
X5.1063Y-2.9488
X5.1063Y-2.9961
X5.1181Y-4.3386
X5.1201Y-5.1526
X5.1496Y-4.378
X5.1772Y-3.2283
X5.189Y-4.4567
X5.2687Y-4.5197
X5.3268Y-4.4882
X5.3307Y-4.1654
X5.3307Y-4.2677
X5.3937Y-4.4685
X5.3937Y-4.5118
X5.4252Y-4.3358
X5.4291Y-3.6417
X5.4291Y-3.7717
X5.5591Y-3.6417
X5.5591Y-3.7717
X5.6457Y-4.2165
X5.6457Y-4.2717
X5.6457Y-4.3228
X5.6732Y-3.5669
X5.6732Y-4.4449
X5.6732Y-4.5
X5.6732Y-4.5512
X5.6929Y-4.2165
X5.6929Y-4.2717
X5.6929Y-4.3228
X5.7008Y-4.7559
X5.7165Y-3.5236
X5.7165Y-3.5669
X5.7205Y-3.9567
X5.7205Y-4.4449
X5.7205Y-4.5
X5.7205Y-4.5512
X5.7402Y-4.2165
X5.7402Y-4.2717
X5.7402Y-4.3268
X5.7598Y-3.5669
X5.7677Y-4.4449
X5.7677Y-4.5
X5.7677Y-4.5551
X5.8337Y-4.0079
X5.8622Y-4.1378
T5
X2.0039Y-2.7795
X2.0929Y-4.4677
X2.0929Y-4.5677
X2.0929Y-4.6677
X2.0929Y-4.7677
X2.0929Y-4.8677
X2.0929Y-4.9677
X2.0929Y-5.0677
X2.0929Y-5.1677
X2.1929Y-4.4677
X2.1929Y-4.5677
X2.1929Y-4.6677
X2.1929Y-4.7677
X2.1929Y-4.8677
X2.1929Y-4.9677
X2.1929Y-5.0677
X2.1929Y-5.1677
X2.3031Y-2.7795
X2.6614Y-3.062
X2.6614Y-3.162
T6
X3.1496Y-2.5118
X3.2496Y-2.5118
X3.3496Y-2.5118
X3.8386Y-2.5118
X3.9386Y-2.5118
X4.0386Y-2.5118
X4.5276Y-2.5118
X4.6276Y-2.5118
X4.7276Y-2.5118
T7
X4.0Y-5.1969
X4.1969Y-5.1969
X4.5217Y-5.1969
X4.7185Y-5.1969
T8
X2.6341Y-4.4047
X3.4697Y-5.2398
T9
X3.1398Y-3.3661
X4.7343Y-3.3661
T3
G00X5.9717Y-3.0646
M15
G01X5.9559Y-3.0646
M16
G05
G00X5.9717Y-3.2551
M15
G01X5.9559Y-3.2551
M16
G05
T4
G00X6.0917Y-3.0524
M15
G01X6.072Y-3.0524
M16
G05
G00X6.0917Y-3.2673
M15
G01X6.072Y-3.2673
M16
G05
T0
M30
