%TF.GenerationSoftware,KiCad,Pcbnew,7.0.2-0*%
%TF.CreationDate,2023-06-29T11:19:38+08:00*%
%TF.ProjectId,H160_board,48313630-5f62-46f6-9172-642e6b696361,rev?*%
%TF.SameCoordinates,Original*%
%TF.FileFunction,Soldermask,Bot*%
%TF.FilePolarity,Negative*%
%FSLAX46Y46*%
G04 Gerber Fmt 4.6, Leading zero omitted, Abs format (unit mm)*
G04 Created by KiCad (PCBNEW 7.0.2-0) date 2023-06-29 11:19:38*
%MOMM*%
%LPD*%
G01*
G04 APERTURE LIST*
%ADD10R,1.400000X1.400000*%
%ADD11C,1.400000*%
%ADD12C,3.000000*%
%ADD13R,2.400000X2.400000*%
%ADD14C,2.400000*%
%ADD15C,15.000000*%
%ADD16C,4.100000*%
%ADD17C,7.400000*%
%ADD18R,1.905000X2.000000*%
%ADD19O,1.905000X2.000000*%
%ADD20R,2.000000X2.000000*%
%ADD21C,2.000000*%
%ADD22R,1.700000X1.700000*%
%ADD23O,1.700000X1.700000*%
G04 APERTURE END LIST*
D10*
%TO.C,J6*%
X142700000Y-82000000D03*
D11*
X145200000Y-82000000D03*
X145200000Y-78800000D03*
X142700000Y-78800000D03*
D12*
X149970000Y-79290000D03*
X137930000Y-79290000D03*
%TD*%
D13*
%TO.C,C5*%
X93000000Y-102500000D03*
D14*
X93000000Y-97500000D03*
%TD*%
D15*
%TO.C,H2*%
X120250000Y-85500000D03*
%TD*%
D13*
%TO.C,C4*%
X107000000Y-102500000D03*
D14*
X107000000Y-97500000D03*
%TD*%
D16*
%TO.C,H1*%
X88131000Y-133092000D03*
D17*
X88131000Y-133092000D03*
%TD*%
D18*
%TO.C,Q3*%
X97500000Y-63800000D03*
D19*
X100040000Y-63800000D03*
X102580000Y-63800000D03*
%TD*%
D16*
%TO.C,H4*%
X66907000Y-111879000D03*
D17*
X66907000Y-111879000D03*
%TD*%
D18*
%TO.C,Q4*%
X80000000Y-63800000D03*
D19*
X82540000Y-63800000D03*
X85080000Y-63800000D03*
%TD*%
D20*
%TO.C,BZ1*%
X58500000Y-70600000D03*
D21*
X50900000Y-70600000D03*
%TD*%
D22*
%TO.C,J5*%
X67600000Y-77775000D03*
D23*
X67600000Y-80315000D03*
%TD*%
D22*
%TO.C,J4*%
X53160000Y-113480000D03*
D23*
X55700000Y-113480000D03*
X53160000Y-116020000D03*
X55700000Y-116020000D03*
X53160000Y-118560000D03*
X55700000Y-118560000D03*
X53160000Y-121100000D03*
X55700000Y-121100000D03*
X53160000Y-123640000D03*
X55700000Y-123640000D03*
X53160000Y-126180000D03*
X55700000Y-126180000D03*
X53160000Y-128720000D03*
X55700000Y-128720000D03*
X53160000Y-131260000D03*
X55700000Y-131260000D03*
%TD*%
D10*
%TO.C,J1*%
X83400000Y-118800000D03*
D11*
X83400000Y-116300000D03*
X80200000Y-116300000D03*
X80200000Y-118800000D03*
D12*
X80690000Y-111530000D03*
X80690000Y-123570000D03*
%TD*%
D22*
%TO.C,J2*%
X63500000Y-77725000D03*
D23*
X63500000Y-80265000D03*
%TD*%
D15*
%TO.C,H3*%
X79750000Y-85500000D03*
%TD*%
D18*
%TO.C,Q6*%
X115000000Y-63800000D03*
D19*
X117540000Y-63800000D03*
X120080000Y-63800000D03*
%TD*%
M02*
