M48
; DRILL file {KiCad 7.0.2-0} date 2023 June 29, Thursday 11:19:35
; FORMAT={-:-/ absolute / inch / decimal}
; #@! TF.CreationDate,2023-06-29T11:19:35+08:00
; #@! TF.GenerationSoftware,Kicad,Pcbnew,7.0.2-0
; #@! TF.FileFunction,Plated,1,4,PTH
FMAT,2
INCH
; #@! TA.AperFunction,Plated,PTH,ComponentDrill
T1C0.0079
; #@! TA.AperFunction,Plated,PTH,ViaDrill
T2C0.0157
; #@! TA.AperFunction,Plated,PTH,ComponentDrill
T3C0.0362
; #@! TA.AperFunction,Plated,PTH,ComponentDrill
T4C0.0394
; #@! TA.AperFunction,Plated,PTH,ComponentDrill
T5C0.0433
; #@! TA.AperFunction,Plated,PTH,ComponentDrill
T6C0.0472
; #@! TA.AperFunction,Plated,PTH,ComponentDrill
T7C0.0906
; #@! TA.AperFunction,Plated,PTH,ComponentDrill
T8C0.1457
; #@! TA.AperFunction,Plated,PTH,ComponentDrill
T9C0.2362
%
G90
G05
T1
X2.9852Y-2.7165
X2.9852Y-2.7657
X2.9852Y-2.815
X3.0276Y-2.7165
X3.0276Y-2.7657
X3.0276Y-2.815
X3.0699Y-2.7165
X3.0699Y-2.7657
X3.0699Y-2.815
T2
X1.7244Y-4.7047
X1.8701Y-4.7047
X1.9331Y-4.6102
X1.9567Y-3.2756
X2.0079Y-4.6339
X2.0118Y-4.3268
X2.0157Y-4.6772
X2.0591Y-4.0236
X2.1142Y-3.3386
X2.1142Y-3.4882
X2.1142Y-4.0354
X2.1772Y-4.2205
X2.3701Y-3.4843
X2.3898Y-4.1693
X2.3937Y-3.2244
X2.4016Y-3.8189
X2.4449Y-3.7681
X2.4555Y-3.5681
X2.4843Y-3.4685
X2.4843Y-3.6181
X2.5Y-3.7205
X2.5157Y-3.6681
X2.5433Y-3.8701
X2.5591Y-3.9173
X2.563Y-3.4646
X2.6122Y-3.4015
X2.6614Y-4.0866
X2.6654Y-4.9449
X2.7165Y-4.0866
X2.7323Y-2.6831
X2.7992Y-5.2992
X2.8189Y-4.7441
X2.8425Y-5.3425
X2.8819Y-5.3819
X2.9213Y-5.2992
X2.9252Y-2.9016
X2.9449Y-4.7756
X2.9449Y-4.874
X2.9528Y-5.2244
X3.063Y-5.3701
X3.0984Y-3.9016
X3.1299Y-2.6378
X3.1339Y-2.8976
X3.1811Y-3.9843
X3.1969Y-5.3031
X3.2992Y-2.8898
X3.2992Y-2.9291
X3.3071Y-2.6654
X3.3504Y-2.6654
X3.3504Y-2.8898
X3.3504Y-2.9291
X3.3937Y-2.6654
X3.4016Y-2.8898
X3.4016Y-2.9291
X3.4528Y-2.8898
X3.4528Y-2.9291
X3.5512Y-2.9843
X3.5512Y-3.0276
X3.5945Y-2.9843
X3.5945Y-3.0276
X3.6024Y-5.7205
X3.6024Y-5.7795
X3.6299Y-3.252
X3.6378Y-2.9843
X3.6772Y-2.8976
X3.7205Y-2.8976
X3.7205Y-2.9409
X3.7323Y-5.5748
X3.7323Y-5.8425
X3.7323Y-5.9173
X3.7638Y-2.8976
X3.7638Y-2.9409
X3.7638Y-2.9843
X3.8031Y-3.0394
X3.937Y-2.8976
X3.937Y-2.9409
X3.937Y-2.9843
X3.9803Y-2.9409
X3.9803Y-2.9843
X3.9961Y-2.6654
X4.0236Y-2.9409
X4.0236Y-2.9843
X4.0394Y-2.6654
X4.0669Y-2.9409
X4.0669Y-2.9843
X4.0827Y-2.6654
X4.2008Y-4.9961
X4.4646Y-2.5748
X4.685Y-5.1457
X4.7667Y-4.5
X4.874Y-5.2795
X4.8976Y-4.6575
X4.9134Y-2.7953
X4.9213Y-4.3386
X4.9213Y-4.3937
X4.9213Y-4.4449
X4.9571Y-2.9893
X4.9685Y-4.3386
X4.9685Y-4.3937
X4.9685Y-4.4449
X4.9724Y-4.6575
X5.0157Y-4.3386
X5.0157Y-4.3937
X5.0157Y-4.4488
X5.0197Y-2.8307
X5.0236Y-2.6575
X5.0384Y-4.8386
X5.0512Y-4.5827
X5.0669Y-2.4596
X5.0709Y-4.3386
X5.1024Y-2.8031
X5.1063Y-2.9488
X5.1063Y-2.9961
X5.1181Y-4.3386
X5.1496Y-4.378
X5.1772Y-3.2283
X5.189Y-4.4567
X5.2687Y-4.5197
X5.3268Y-4.4882
X5.3307Y-4.1654
X5.3307Y-4.2677
X5.3937Y-4.4685
X5.3937Y-4.5118
X5.4252Y-4.3358
X5.4291Y-3.6417
X5.4291Y-3.7717
X5.5591Y-3.6417
X5.5591Y-3.7717
X5.6457Y-4.2165
X5.6457Y-4.2717
X5.6457Y-4.3228
X5.6732Y-3.5669
X5.6732Y-4.4449
X5.6732Y-4.5
X5.6732Y-4.5512
X5.6929Y-4.2165
X5.6929Y-4.2717
X5.6929Y-4.3228
X5.7008Y-4.7559
X5.7165Y-3.5236
X5.7165Y-3.5669
X5.7205Y-3.9567
X5.7205Y-4.4449
X5.7205Y-4.5
X5.7205Y-4.5512
X5.7402Y-4.2165
X5.7402Y-4.2717
X5.7402Y-4.3268
X5.7598Y-3.5669
X5.7677Y-4.4449
X5.7677Y-4.5
X5.7677Y-4.5551
X5.8337Y-4.0079
X5.8622Y-4.1378
T3
X3.1575Y-4.5787
X3.1575Y-4.6772
X3.2835Y-4.5787
X3.2835Y-4.6772
X5.6181Y-3.1024
X5.6181Y-3.2283
X5.7165Y-3.1024
X5.7165Y-3.2283
T4
X2.0039Y-2.7795
X2.0929Y-4.4677
X2.0929Y-4.5677
X2.0929Y-4.6677
X2.0929Y-4.7677
X2.0929Y-4.8677
X2.0929Y-4.9677
X2.0929Y-5.0677
X2.0929Y-5.1677
X2.1929Y-4.4677
X2.1929Y-4.5677
X2.1929Y-4.6677
X2.1929Y-4.7677
X2.1929Y-4.8677
X2.1929Y-4.9677
X2.1929Y-5.0677
X2.1929Y-5.1677
X2.3031Y-2.7795
X2.5Y-3.06
X2.5Y-3.16
X2.6614Y-3.062
X2.6614Y-3.162
T5
X3.1496Y-2.5118
X3.2496Y-2.5118
X3.3496Y-2.5118
X3.8386Y-2.5118
X3.9386Y-2.5118
X4.0386Y-2.5118
X4.5276Y-2.5118
X4.6276Y-2.5118
X4.7276Y-2.5118
T6
X3.6614Y-3.8386
X3.6614Y-4.0354
X4.2126Y-3.8386
X4.2126Y-4.0354
T7
X3.1768Y-4.3909
X3.1768Y-4.865
X5.4303Y-3.1217
X5.9043Y-3.1217
T8
X2.6341Y-4.4047
X3.4697Y-5.2398
T9
X3.1398Y-3.3661
X4.7343Y-3.3661
T0
M30
